<svg xmlns="http://www.w3.org/2000/svg" xmlns:xlink="http://www.w3.org/1999/xlink" width="1080" zoomAndPan="magnify" viewBox="0 0 810 809.999993" height="1080" preserveAspectRatio="xMidYMid meet" version="1.0"><defs><clipPath id="a68f6217a6"><path d="M 285.164062 138 L 512.859375 138 L 512.859375 672 L 285.164062 672 Z M 285.164062 138 " clip-rule="nonzero"/></clipPath><clipPath id="ba904d3a28"><path d="M 491 244.671875 L 624 244.671875 L 624 339 L 491 339 Z M 491 244.671875 " clip-rule="nonzero"/></clipPath><clipPath id="c649dd2492"><path d="M 530 514 L 687.648438 514 L 687.648438 565.628906 L 530 565.628906 Z M 530 514 " clip-rule="nonzero"/></clipPath><clipPath id="b07e33ae54"><path d="M 538 360 L 765.945312 360 L 765.945312 432 L 538 432 Z M 538 360 " clip-rule="nonzero"/></clipPath><clipPath id="ae30406e1d"><path d="M 185.484375 471 L 319 471 L 319 565.628906 L 185.484375 565.628906 Z M 185.484375 471 " clip-rule="nonzero"/></clipPath><clipPath id="36842909fa"><path d="M 122 244.671875 L 280 244.671875 L 280 297 L 122 297 Z M 122 244.671875 " clip-rule="nonzero"/></clipPath></defs><path fill="#ffffff" d="M 559.523438 756.703125 L 250.105469 756.703125 C 246.457031 756.699219 242.824219 756.457031 239.203125 755.976562 C 235.585938 755.5 232.015625 754.789062 228.488281 753.84375 C 224.964844 752.898438 221.515625 751.730469 218.140625 750.335938 C 214.765625 748.945312 211.496094 747.335938 208.332031 745.519531 C 205.167969 743.699219 202.136719 741.679688 199.234375 739.46875 C 196.332031 737.253906 193.585938 734.859375 190.996094 732.289062 C 188.40625 729.714844 185.996094 726.984375 183.757812 724.097656 C 181.523438 721.214844 179.488281 718.195312 177.644531 715.042969 L 23.019531 447.074219 C 21.191406 443.898438 19.578125 440.613281 18.179688 437.226562 C 16.78125 433.835938 15.609375 430.371094 14.664062 426.828125 C 13.71875 423.285156 13.007812 419.699219 12.53125 416.0625 C 12.054688 412.425781 11.816406 408.777344 11.816406 405.109375 C 11.816406 401.445312 12.054688 397.792969 12.53125 394.160156 C 13.007812 390.523438 13.71875 386.933594 14.664062 383.394531 C 15.609375 379.851562 16.78125 376.386719 18.179688 372.996094 C 19.578125 369.609375 21.191406 366.324219 23.019531 363.144531 L 177.644531 95.3125 C 179.464844 92.136719 181.488281 89.089844 183.707031 86.179688 C 185.929688 83.269531 188.328125 80.515625 190.910156 77.917969 C 193.492188 75.320312 196.234375 72.90625 199.132812 70.667969 C 202.035156 68.429688 205.066406 66.394531 208.234375 64.554688 C 211.398438 62.71875 214.671875 61.09375 218.054688 59.683594 C 221.433594 58.277344 224.890625 57.09375 228.425781 56.140625 C 231.960938 55.1875 235.542969 54.46875 239.171875 53.984375 C 242.800781 53.5 246.445312 53.253906 250.105469 53.25 L 559.523438 53.25 C 563.1875 53.25 566.832031 53.496094 570.464844 53.976562 C 574.097656 54.460938 577.679688 55.175781 581.214844 56.128906 C 584.753906 57.085938 588.210938 58.265625 591.59375 59.671875 C 594.976562 61.082031 598.25 62.703125 601.417969 64.542969 C 604.585938 66.382812 607.621094 68.417969 610.523438 70.65625 C 613.421875 72.894531 616.164062 75.3125 618.75 77.910156 C 621.332031 80.507812 623.734375 83.261719 625.957031 86.175781 C 628.175781 89.089844 630.199219 92.132812 632.019531 95.3125 L 786.777344 363.246094 C 788.597656 366.429688 790.199219 369.714844 791.589844 373.105469 C 792.980469 376.496094 794.148438 379.960938 795.089844 383.5 C 796.027344 387.042969 796.734375 390.628906 797.210938 394.265625 C 797.683594 397.898438 797.921875 401.546875 797.921875 405.210938 C 797.921875 408.875 797.683594 412.523438 797.210938 416.160156 C 796.734375 419.792969 796.027344 423.378906 795.089844 426.921875 C 794.148438 430.460938 792.980469 433.929688 791.589844 437.320312 C 790.199219 440.707031 788.597656 443.996094 786.777344 447.175781 L 631.953125 715.144531 C 630.113281 718.292969 628.074219 721.308594 625.839844 724.191406 C 623.605469 727.074219 621.195312 729.800781 618.605469 732.367188 C 616.015625 734.9375 613.269531 737.328125 610.371094 739.535156 C 607.46875 741.746094 604.4375 743.761719 601.273438 745.574219 C 598.109375 747.390625 594.84375 748.992188 591.472656 750.382812 C 588.097656 751.769531 584.652344 752.933594 581.128906 753.875 C 577.601562 754.8125 574.035156 755.519531 570.417969 755.992188 C 566.800781 756.46875 563.171875 756.703125 559.523438 756.703125 Z M 559.523438 756.703125 " fill-opacity="1" fill-rule="nonzero"/><g clip-path="url(#a68f6217a6)"><path fill="#8c52ff" d="M 284.859375 345.378906 L 391.667969 345.378906 L 288.964844 138.324219 L 406.046875 138.324219 L 512.859375 406.878906 L 414.261719 406.878906 L 488.210938 671.328125 Z M 284.859375 345.378906 " fill-opacity="1" fill-rule="nonzero"/></g><g clip-path="url(#ba904d3a28)"><path fill="#8c52ff" d="M 623.835938 244.664062 L 523.636719 281.203125 L 545.503906 303.019531 L 491.0625 338.929688 L 572.660156 309.152344 L 549.621094 288.785156 L 623.835938 244.664062 " fill-opacity="1" fill-rule="nonzero"/></g><path fill="#8c52ff" d="M 699.601562 270.054688 L 667.691406 281.691406 L 674.652344 288.640625 L 657.320312 300.070312 L 683.296875 290.585938 L 675.964844 284.105469 L 699.601562 270.054688 " fill-opacity="1" fill-rule="nonzero"/><path fill="#8c52ff" d="M 737.925781 499.914062 L 707.851562 484.109375 L 707.40625 493.945312 L 687.296875 488.808594 L 711.792969 501.664062 L 711.640625 491.867188 L 737.925781 499.914062 " fill-opacity="1" fill-rule="nonzero"/><g clip-path="url(#c649dd2492)"><path fill="#8c52ff" d="M 687.144531 533.074219 L 595.433594 514.050781 L 600.179688 544.597656 L 530.277344 534.199219 L 618.453125 565.628906 L 611.910156 535.558594 L 687.144531 533.074219 " fill-opacity="1" fill-rule="nonzero"/></g><g clip-path="url(#b07e33ae54)"><path fill="#8c52ff" d="M 765.574219 372.039062 L 608.074219 360.644531 L 624.699219 405.410156 L 538.683594 415.804688 L 658.859375 431.566406 L 639.652344 388.09375 L 765.574219 372.039062 " fill-opacity="1" fill-rule="nonzero"/></g><g clip-path="url(#ae30406e1d)"><path fill="#8c52ff" d="M 185.804688 565.628906 L 286.003906 529.089844 L 264.136719 507.269531 L 318.578125 471.363281 L 236.980469 501.144531 L 260.019531 521.507812 L 185.804688 565.628906 " fill-opacity="1" fill-rule="nonzero"/></g><path fill="#8c52ff" d="M 110.039062 540.238281 L 141.949219 528.597656 L 134.988281 521.652344 L 152.320312 510.222656 L 126.34375 519.699219 L 133.675781 526.1875 L 110.039062 540.238281 " fill-opacity="1" fill-rule="nonzero"/><path fill="#8c52ff" d="M 71.714844 310.382812 L 101.789062 326.179688 L 102.226562 316.34375 L 122.34375 321.484375 L 97.847656 308.625 L 98 318.425781 L 71.714844 310.382812 " fill-opacity="1" fill-rule="nonzero"/><g clip-path="url(#36842909fa)"><path fill="#8c52ff" d="M 122.496094 277.21875 L 214.207031 296.246094 L 209.460938 265.695312 L 279.363281 276.09375 L 191.1875 244.664062 L 197.730469 274.734375 L 122.496094 277.21875 " fill-opacity="1" fill-rule="nonzero"/></g><path fill="#8c52ff" d="M 44.066406 438.257812 L 201.566406 449.644531 L 184.941406 404.882812 L 270.957031 394.492188 L 150.78125 378.726562 L 169.988281 422.199219 L 44.066406 438.257812 " fill-opacity="1" fill-rule="nonzero"/></svg>